<mxfile host="app.diagrams.net" agent="Mozilla/5.0 (Windows NT 10.0; Win64; x64) AppleWebKit/537.36 (KHTML, like Gecko) Chrome/132.0.0.0 Safari/537.36" version="26.0.9">
  <diagram name="第 1 页" id="_SEy42GFqGGozL6zYZlA">
    <mxGraphModel dx="880" dy="468" grid="0" gridSize="10" guides="1" tooltips="1" connect="1" arrows="1" fold="1" page="1" pageScale="1" pageWidth="827" pageHeight="1169" math="0" shadow="0">
      <root>
        <mxCell id="0" />
        <mxCell id="1" parent="0" />
        <mxCell id="6JSOnv6SZ0-GVzwufpCH-1" value="图书订单实体" style="rounded=0;whiteSpace=wrap;html=1;" vertex="1" parent="1">
          <mxGeometry x="303" y="220" width="106" height="48" as="geometry" />
        </mxCell>
        <mxCell id="6JSOnv6SZ0-GVzwufpCH-2" style="rounded=0;orthogonalLoop=1;jettySize=auto;html=1;entryX=0.5;entryY=0;entryDx=0;entryDy=0;endArrow=none;startFill=0;" edge="1" parent="1" target="6JSOnv6SZ0-GVzwufpCH-1">
          <mxGeometry relative="1" as="geometry">
            <mxPoint x="185.47087928785368" y="165.48966684407708" as="sourcePoint" />
            <mxPoint x="340.99" y="221.024" as="targetPoint" />
          </mxGeometry>
        </mxCell>
        <mxCell id="6JSOnv6SZ0-GVzwufpCH-3" value="主键id" style="ellipse;whiteSpace=wrap;html=1;" vertex="1" parent="1">
          <mxGeometry x="116" y="136" width="77" height="37" as="geometry" />
        </mxCell>
        <mxCell id="6JSOnv6SZ0-GVzwufpCH-4" value="图书id" style="ellipse;whiteSpace=wrap;html=1;" vertex="1" parent="1">
          <mxGeometry x="450" y="88" width="77" height="37" as="geometry" />
        </mxCell>
        <mxCell id="6JSOnv6SZ0-GVzwufpCH-5" value="送货地址" style="ellipse;whiteSpace=wrap;html=1;" vertex="1" parent="1">
          <mxGeometry x="334" y="62" width="77" height="37" as="geometry" />
        </mxCell>
        <mxCell id="6JSOnv6SZ0-GVzwufpCH-6" value="用户id" style="ellipse;whiteSpace=wrap;html=1;" vertex="1" parent="1">
          <mxGeometry x="527" y="127" width="77" height="37" as="geometry" />
        </mxCell>
        <mxCell id="6JSOnv6SZ0-GVzwufpCH-7" value="快递单号" style="ellipse;whiteSpace=wrap;html=1;" vertex="1" parent="1">
          <mxGeometry x="529" y="290" width="77" height="37" as="geometry" />
        </mxCell>
        <mxCell id="6JSOnv6SZ0-GVzwufpCH-8" value="实付价格" style="ellipse;whiteSpace=wrap;html=1;" vertex="1" parent="1">
          <mxGeometry x="100" y="210" width="77" height="37" as="geometry" />
        </mxCell>
        <mxCell id="6JSOnv6SZ0-GVzwufpCH-9" style="rounded=0;orthogonalLoop=1;jettySize=auto;html=1;endArrow=none;startFill=0;exitX=0.5;exitY=1;exitDx=0;exitDy=0;entryX=0.5;entryY=0;entryDx=0;entryDy=0;" edge="1" parent="1" source="6JSOnv6SZ0-GVzwufpCH-11" target="6JSOnv6SZ0-GVzwufpCH-1">
          <mxGeometry relative="1" as="geometry">
            <mxPoint x="328.5" y="116" as="sourcePoint" />
            <mxPoint x="334" y="218" as="targetPoint" />
          </mxGeometry>
        </mxCell>
        <mxCell id="6JSOnv6SZ0-GVzwufpCH-10" style="rounded=0;orthogonalLoop=1;jettySize=auto;html=1;entryX=0.5;entryY=0;entryDx=0;entryDy=0;endArrow=none;startFill=0;exitX=0.5;exitY=1;exitDx=0;exitDy=0;" edge="1" parent="1" source="6JSOnv6SZ0-GVzwufpCH-5" target="6JSOnv6SZ0-GVzwufpCH-1">
          <mxGeometry relative="1" as="geometry">
            <mxPoint x="339" y="136" as="sourcePoint" />
            <mxPoint x="344" y="238" as="targetPoint" />
          </mxGeometry>
        </mxCell>
        <mxCell id="6JSOnv6SZ0-GVzwufpCH-11" value="订单号" style="ellipse;whiteSpace=wrap;html=1;" vertex="1" parent="1">
          <mxGeometry x="205" y="74" width="77" height="37" as="geometry" />
        </mxCell>
        <mxCell id="6JSOnv6SZ0-GVzwufpCH-12" style="rounded=0;orthogonalLoop=1;jettySize=auto;html=1;endArrow=none;startFill=0;exitX=0.5;exitY=1;exitDx=0;exitDy=0;entryX=0.5;entryY=0;entryDx=0;entryDy=0;" edge="1" parent="1" source="6JSOnv6SZ0-GVzwufpCH-4" target="6JSOnv6SZ0-GVzwufpCH-1">
          <mxGeometry relative="1" as="geometry">
            <mxPoint x="383" y="109" as="sourcePoint" />
            <mxPoint x="351" y="215" as="targetPoint" />
          </mxGeometry>
        </mxCell>
        <mxCell id="6JSOnv6SZ0-GVzwufpCH-13" style="rounded=0;orthogonalLoop=1;jettySize=auto;html=1;endArrow=none;startFill=0;exitX=0.5;exitY=1;exitDx=0;exitDy=0;entryX=0.5;entryY=0;entryDx=0;entryDy=0;" edge="1" parent="1" source="6JSOnv6SZ0-GVzwufpCH-6" target="6JSOnv6SZ0-GVzwufpCH-1">
          <mxGeometry relative="1" as="geometry">
            <mxPoint x="499" y="135" as="sourcePoint" />
            <mxPoint x="361" y="225" as="targetPoint" />
          </mxGeometry>
        </mxCell>
        <mxCell id="6JSOnv6SZ0-GVzwufpCH-14" style="rounded=0;orthogonalLoop=1;jettySize=auto;html=1;endArrow=none;startFill=0;entryX=0;entryY=0.5;entryDx=0;entryDy=0;exitX=1;exitY=0.5;exitDx=0;exitDy=0;" edge="1" parent="1" source="6JSOnv6SZ0-GVzwufpCH-8" target="6JSOnv6SZ0-GVzwufpCH-1">
          <mxGeometry relative="1" as="geometry">
            <mxPoint x="336" y="334" as="sourcePoint" />
            <mxPoint x="366" y="278" as="targetPoint" />
          </mxGeometry>
        </mxCell>
        <mxCell id="6JSOnv6SZ0-GVzwufpCH-15" style="rounded=0;orthogonalLoop=1;jettySize=auto;html=1;endArrow=none;startFill=0;entryX=1;entryY=0.5;entryDx=0;entryDy=0;exitX=0;exitY=0.5;exitDx=0;exitDy=0;" edge="1" parent="1" source="6JSOnv6SZ0-GVzwufpCH-7" target="6JSOnv6SZ0-GVzwufpCH-1">
          <mxGeometry relative="1" as="geometry">
            <mxPoint x="481" y="325" as="sourcePoint" />
            <mxPoint x="366" y="278" as="targetPoint" />
          </mxGeometry>
        </mxCell>
        <mxCell id="6JSOnv6SZ0-GVzwufpCH-16" value="购买数量" style="ellipse;whiteSpace=wrap;html=1;" vertex="1" parent="1">
          <mxGeometry x="529" y="220" width="77" height="37" as="geometry" />
        </mxCell>
        <mxCell id="6JSOnv6SZ0-GVzwufpCH-17" style="rounded=0;orthogonalLoop=1;jettySize=auto;html=1;endArrow=none;startFill=0;entryX=1;entryY=0.5;entryDx=0;entryDy=0;exitX=0;exitY=0.5;exitDx=0;exitDy=0;" edge="1" parent="1" source="6JSOnv6SZ0-GVzwufpCH-16" target="6JSOnv6SZ0-GVzwufpCH-1">
          <mxGeometry relative="1" as="geometry">
            <mxPoint x="523" y="297" as="sourcePoint" />
            <mxPoint x="419" y="254" as="targetPoint" />
          </mxGeometry>
        </mxCell>
        <mxCell id="6JSOnv6SZ0-GVzwufpCH-18" value="订单类型" style="ellipse;whiteSpace=wrap;html=1;" vertex="1" parent="1">
          <mxGeometry x="116" y="284" width="77" height="37" as="geometry" />
        </mxCell>
        <mxCell id="6JSOnv6SZ0-GVzwufpCH-19" style="rounded=0;orthogonalLoop=1;jettySize=auto;html=1;endArrow=none;startFill=0;entryX=0;entryY=0.5;entryDx=0;entryDy=0;exitX=0.5;exitY=0;exitDx=0;exitDy=0;" edge="1" parent="1" source="6JSOnv6SZ0-GVzwufpCH-18" target="6JSOnv6SZ0-GVzwufpCH-1">
          <mxGeometry relative="1" as="geometry">
            <mxPoint x="424" y="333" as="sourcePoint" />
            <mxPoint x="366" y="278" as="targetPoint" />
          </mxGeometry>
        </mxCell>
        <mxCell id="6JSOnv6SZ0-GVzwufpCH-20" value="快递公司" style="ellipse;whiteSpace=wrap;html=1;" vertex="1" parent="1">
          <mxGeometry x="310" y="336" width="77" height="37" as="geometry" />
        </mxCell>
        <mxCell id="6JSOnv6SZ0-GVzwufpCH-21" style="rounded=0;orthogonalLoop=1;jettySize=auto;html=1;endArrow=none;startFill=0;entryX=0.5;entryY=1;entryDx=0;entryDy=0;" edge="1" parent="1" source="6JSOnv6SZ0-GVzwufpCH-20" target="6JSOnv6SZ0-GVzwufpCH-1">
          <mxGeometry relative="1" as="geometry">
            <mxPoint x="165" y="294" as="sourcePoint" />
            <mxPoint x="313" y="254" as="targetPoint" />
          </mxGeometry>
        </mxCell>
        <mxCell id="6JSOnv6SZ0-GVzwufpCH-22" value="支付类型" style="ellipse;whiteSpace=wrap;html=1;" vertex="1" parent="1">
          <mxGeometry x="205" y="321" width="77" height="37" as="geometry" />
        </mxCell>
        <mxCell id="6JSOnv6SZ0-GVzwufpCH-23" value="订单时间" style="ellipse;whiteSpace=wrap;html=1;" vertex="1" parent="1">
          <mxGeometry x="422" y="329" width="77" height="37" as="geometry" />
        </mxCell>
        <mxCell id="6JSOnv6SZ0-GVzwufpCH-25" style="rounded=0;orthogonalLoop=1;jettySize=auto;html=1;endArrow=none;startFill=0;entryX=0.5;entryY=1;entryDx=0;entryDy=0;exitX=0.5;exitY=0;exitDx=0;exitDy=0;" edge="1" parent="1" source="6JSOnv6SZ0-GVzwufpCH-22" target="6JSOnv6SZ0-GVzwufpCH-1">
          <mxGeometry relative="1" as="geometry">
            <mxPoint x="360" y="346" as="sourcePoint" />
            <mxPoint x="366" y="278" as="targetPoint" />
          </mxGeometry>
        </mxCell>
        <mxCell id="6JSOnv6SZ0-GVzwufpCH-26" style="rounded=0;orthogonalLoop=1;jettySize=auto;html=1;endArrow=none;startFill=0;entryX=0.5;entryY=1;entryDx=0;entryDy=0;exitX=0.5;exitY=0;exitDx=0;exitDy=0;" edge="1" parent="1" source="6JSOnv6SZ0-GVzwufpCH-23" target="6JSOnv6SZ0-GVzwufpCH-1">
          <mxGeometry relative="1" as="geometry">
            <mxPoint x="360" y="346" as="sourcePoint" />
            <mxPoint x="366" y="278" as="targetPoint" />
          </mxGeometry>
        </mxCell>
      </root>
    </mxGraphModel>
  </diagram>
</mxfile>
